<svg width="25" height="25" viewBox="0 0 25 25" fill="none" xmlns="http://www.w3.org/2000/svg">
<path d="M9.60137 21.2714V18.2047C9.60135 17.4246 10.2373 16.7908 11.0252 16.7856H13.9112C14.7029 16.7856 15.3447 17.4209 15.3447 18.2047V18.2047V21.2809C15.3445 21.9432 15.8784 22.4845 16.5472 22.5H18.4712C20.3893 22.5 21.9442 20.9607 21.9442 19.0618V19.0618V10.3378C21.9339 9.59083 21.5796 8.88935 20.9821 8.43303L14.4019 3.1853C13.2491 2.27157 11.6104 2.27157 10.4576 3.1853L3.90618 8.44256C3.30641 8.89702 2.95154 9.59967 2.94415 10.3474V19.0618C2.94415 20.9607 4.49903 22.5 6.41706 22.5H8.34111C9.02651 22.5 9.58213 21.9499 9.58213 21.2714V21.2714" stroke="#666666" stroke-width="1.5" stroke-linecap="round" stroke-linejoin="round"/>
</svg>
